<?xml version="1.0" encoding="iso-8859-1"?>
<!-- Generator: Adobe Illustrator 19.0.0, SVG Export Plug-In . SVG Version: 6.00 Build 0)  -->
<svg version="1.1" id="Layer_1" xmlns="http://www.w3.org/2000/svg" xmlns:xlink="http://www.w3.org/1999/xlink" x="0px" y="0px"
	 viewBox="0 0 462.451 462.451" style="enable-background:new 0 0 462.451 462.451;" xml:space="preserve">
<g id="XMLID_895_">
	<path id="XMLID_863_" style="fill:#898890;" d="M67.298,186.657L217.302,36.653c7.69-7.69,20.157-7.69,27.847,0l150.004,150.004
		H67.298z"/>
	<path id="XMLID_1140_" style="fill:#E0E0E2;" d="M438.35,408.702H24.101V204.326c0-9.758,7.911-17.669,17.669-17.669h378.91
		c9.758,0,17.669,7.911,17.669,17.669v204.376H438.35z"/>
	<path id="XMLID_1997_" style="fill:#D8D7DA;" d="M438.35,204.326c0-9.758-7.911-17.669-17.669-17.669H231.225v222.045H438.35
		V204.326z"/>
	<circle id="XMLID_862_" style="fill:#ACABB1;" cx="231.225" cy="121.924" r="41.248"/>
	<path id="XMLID_1139_" style="fill:#C6C5CA;" d="M268.481,307.284c0-5.304-4.3-9.604-9.604-9.604h-55.303
		c-5.304,0-9.604,4.3-9.604,9.604v107.412h74.511L268.481,307.284L268.481,307.284z"/>
	<path id="XMLID_1138_" style="fill:#ACABB1;" d="M268.481,307.284c0-5.304-4.3-9.604-9.604-9.604h-27.36v117.016h36.964V307.284z"
		/>
	<path id="XMLID_1137_" style="fill:#C6C5CA;" d="M88.087,262.768H49.786c-3.031,0-5.489-2.457-5.489-5.489v-38.301
		c0-3.032,2.458-5.489,5.489-5.489h38.301c3.032,0,5.489,2.457,5.489,5.489v38.301C93.576,260.311,91.118,262.768,88.087,262.768z"
		/>
	<path id="XMLID_1990_" style="fill:#C6C5CA;" d="M118.215,361.835c0,3.032-2.457,5.489-5.489,5.489h-38.3
		c-3.032,0-5.489-2.457-5.489-5.489v-38.301c0-3.031,2.457-5.489,5.489-5.489h38.301c3.032,0,5.489,2.458,5.489,5.489v38.301
		H118.215z"/>
	<path id="XMLID_1989_" style="fill:#ACABB1;" d="M390.536,361.835c0,3.032-2.458,5.489-5.489,5.489h-38.301
		c-3.031,0-5.489-2.457-5.489-5.489v-38.301c0-3.031,2.458-5.489,5.489-5.489h38.301c3.031,0,5.489,2.458,5.489,5.489V361.835z"/>
	<path id="XMLID_1136_" style="fill:#C6C5CA;" d="M194.94,262.768h-38.3c-3.032,0-5.489-2.457-5.489-5.489v-38.301
		c0-3.032,2.458-5.489,5.489-5.489h38.301c3.032,0,5.489,2.457,5.489,5.489v38.301C200.429,260.311,197.972,262.768,194.94,262.768z
		"/>
	<path id="XMLID_1135_" style="fill:#ACABB1;" d="M307.283,257.279c0,3.031-2.458,5.489-5.489,5.489h-38.301
		c-3.031,0-5.489-2.457-5.489-5.489v-38.301c0-3.032,2.458-5.489,5.489-5.489h38.301c3.031,0,5.489,2.457,5.489,5.489V257.279z"/>
	<path id="XMLID_1134_" style="fill:#ACABB1;" d="M408.647,262.768h-38.301c-3.031,0-5.489-2.457-5.489-5.489v-38.301
		c0-3.032,2.457-5.489,5.489-5.489h38.301c3.031,0,5.489,2.457,5.489,5.489v38.301C414.136,260.311,411.678,262.768,408.647,262.768
		z"/>
	<path id="XMLID_861_" style="fill:#C6C5CA;" d="M231.225,80.677c-22.781,0-41.248,18.467-41.248,41.248
		s18.467,41.248,41.248,41.248V80.677z"/>
	<path id="XMLID_1984_" style="fill:#ACABB1;" d="M462.451,419.5c0,6.664-5.402,12.065-12.065,12.065H12.065
		C5.402,431.565,0,426.163,0,419.5c0-6.664,5.402-12.065,12.065-12.065h438.32C457.049,407.434,462.451,412.836,462.451,419.5z"/>
	<path id="XMLID_1981_" style="fill:#898890;" d="M462.451,419.5c0,6.664-5.402,12.065-12.065,12.065H231.609v-24.131h218.776
		C457.049,407.434,462.451,412.836,462.451,419.5z"/>
</g>
<g>
</g>
<g>
</g>
<g>
</g>
<g>
</g>
<g>
</g>
<g>
</g>
<g>
</g>
<g>
</g>
<g>
</g>
<g>
</g>
<g>
</g>
<g>
</g>
<g>
</g>
<g>
</g>
<g>
</g>
</svg>
